999
dxflib 2.2.0.0
  0
SECTION
  2
HEADER
  9
$ACADVER
  1
AC1015
  9
$HANDSEED
  5
FFFF
  9
$INSUNITS
 70
4
  9
$DIMEXE
 40
1.25
  9
$TEXTSTYLE
  7
Standard
  9
$LIMMIN
 10
0.0
 20
0.0
  0
ENDSEC
  0
SECTION
  2
TABLES
  0
TABLE
  2
VPORT
  5
8
100
AcDbSymbolTable
 70
1
  0
VPORT
  5
30
100
AcDbSymbolTableRecord
100
AcDbViewportTableRecord
  2
*Active
 70
0
 10
0.0
 20
0.0
 11
1.0
 21
1.0
 12
286.30555555555549
 22
148.5
 13
0.0
 23
0.0
 14
10.0
 24
10.0
 15
10.0
 25
10.0
 16
0.0
 26
0.0
 36
1.0
 17
0.0
 27
0.0
 37
0.0
 40
297.0
 41
1.92798353909465
 42
50.0
 43
0.0
 44
0.0
 50
0.0
 51
0.0
 71
0
 72
100
 73
1
 74
3
 75
1
 76
1
 77
0
 78
0
281
0
 65
1
110
0.0
120
0.0
130
0.0
111
1.0
121
0.0
131
0.0
112
0.0
122
1.0
132
0.0
 79
0
146
0.0
  0
ENDTAB
  0
TABLE
  2
LTYPE
  5
5
100
AcDbSymbolTable
 70
25
  0
LTYPE
  5
14
100
AcDbSymbolTableRecord
100
AcDbLinetypeTableRecord
  2
BYBLOCK
 70
0
  3

 72
65
 73
0
 40
0.0
  0
LTYPE
  5
15
100
AcDbSymbolTableRecord
100
AcDbLinetypeTableRecord
  2
BYLAYER
 70
0
  3

 72
65
 73
0
 40
0.0
  0
LTYPE
  5
16
100
AcDbSymbolTableRecord
100
AcDbLinetypeTableRecord
  2
CONTINUOUS
 70
0
  3
Solid line
 72
65
 73
0
 40
0.0
  0
LTYPE
  5
31
100
AcDbSymbolTableRecord
100
AcDbLinetypeTableRecord
  2
ACAD_ISO02W100
 70
0
  3
ISO Dashed __ __ __ __ __ __ __ __ __ __ _
 72
65
 73
2
 40
15.0
 49
12.0
 74
0
 49
-3.0
 74
0
  0
LTYPE
  5
32
100
AcDbSymbolTableRecord
100
AcDbLinetypeTableRecord
  2
ACAD_ISO03W100
 70
0
  3
ISO Dashed with Distance __    __    __    _
 72
65
 73
2
 40
30.0
 49
12.0
 74
0
 49
-18.0
 74
0
  0
LTYPE
  5
33
100
AcDbSymbolTableRecord
100
AcDbLinetypeTableRecord
  2
ACAD_ISO04W100
 70
0
  3
ISO Long Dashed Dotted ____ . ____ . __
 72
65
 73
4
 40
30.0
 49
24.0
 74
0
 49
-3.0
 74
0
 49
0.0
 74
0
 49
-3.0
 74
0
  0
LTYPE
  5
34
100
AcDbSymbolTableRecord
100
AcDbLinetypeTableRecord
  2
ACAD_ISO05W100
 70
0
  3
ISO Long Dashed Double Dotted ____ .. __
 72
65
 73
6
 40
33.0
 49
24.0
 74
0
 49
-3.0
 74
0
 49
0.0
 74
0
 49
-3.0
 74
0
 49
0.0
 74
0
 49
-3.0
 74
0
  0
LTYPE
  5
35
100
AcDbSymbolTableRecord
100
AcDbLinetypeTableRecord
  2
BORDER
 70
0
  3
Border __ __ . __ __ . __ __ . __ __ . __ __ .
 72
65
 73
6
 40
44.450000000000003
 49
12.699999999999999
 74
0
 49
-6.3499999999999996
 74
0
 49
12.699999999999999
 74
0
 49
-6.3499999999999996
 74
0
 49
0.0
 74
0
 49
-6.3499999999999996
 74
0
  0
LTYPE
  5
36
100
AcDbSymbolTableRecord
100
AcDbLinetypeTableRecord
  2
BORDER2
 70
0
  3
Border (.5x) __.__.__.__.__.__.__.__.__.__.__.
 72
65
 73
6
 40
22.225000000000001
 49
6.3499999999999996
 74
0
 49
-3.1749999999999998
 74
0
 49
6.3499999999999996
 74
0
 49
-3.1749999999999998
 74
0
 49
0.0
 74
0
 49
-3.1749999999999998
 74
0
  0
LTYPE
  5
37
100
AcDbSymbolTableRecord
100
AcDbLinetypeTableRecord
  2
BORDERX2
 70
0
  3
Border (2x) ____  ____  .  ____  ____  .  ___
 72
65
 73
6
 40
88.900000000000006
 49
25.399999999999999
 74
0
 49
-12.699999999999999
 74
0
 49
25.399999999999999
 74
0
 49
-12.699999999999999
 74
0
 49
0.0
 74
0
 49
-12.699999999999999
 74
0
  0
LTYPE
  5
38
100
AcDbSymbolTableRecord
100
AcDbLinetypeTableRecord
  2
CENTER
 70
0
  3
Center ____ _ ____ _ ____ _ ____ _ ____ _ ____
 72
65
 73
4
 40
50.799999999999997
 49
31.75
 74
0
 49
-6.3499999999999996
 74
0
 49
6.3499999999999996
 74
0
 49
-6.3499999999999996
 74
0
  0
LTYPE
  5
39
100
AcDbSymbolTableRecord
100
AcDbLinetypeTableRecord
  2
CENTER2
 70
0
  3
Center (.5x) ___ _ ___ _ ___ _ ___ _ ___ _ ___
 72
65
 73
4
 40
28.574999999999999
 49
19.050000000000001
 74
0
 49
-3.1749999999999998
 74
0
 49
3.1749999999999998
 74
0
 49
-3.1749999999999998
 74
0
  0
LTYPE
  5
3A
100
AcDbSymbolTableRecord
100
AcDbLinetypeTableRecord
  2
CENTERX2
 70
0
  3
Center (2x) ________  __  ________  __  _____
 72
65
 73
4
 40
101.59999999999999
 49
63.5
 74
0
 49
-12.699999999999999
 74
0
 49
12.699999999999999
 74
0
 49
-12.699999999999999
 74
0
  0
LTYPE
  5
3B
100
AcDbSymbolTableRecord
100
AcDbLinetypeTableRecord
  2
DASHDOT
 70
0
  3
Dash dot __ . __ . __ . __ . __ . __ . __ . __
 72
65
 73
4
 40
25.399999999999999
 49
12.699999999999999
 74
0
 49
-6.3499999999999996
 74
0
 49
0.0
 74
0
 49
-6.3499999999999996
 74
0
  0
LTYPE
  5
3C
100
AcDbSymbolTableRecord
100
AcDbLinetypeTableRecord
  2
DASHDOT2
 70
0
  3
Dash dot (.5x) _._._._._._._._._._._._._._._.
 72
65
 73
4
 40
12.699999999999999
 49
6.3499999999999996
 74
0
 49
-3.1749999999999998
 74
0
 49
0.0
 74
0
 49
-3.1749999999999998
 74
0
  0
LTYPE
  5
3D
100
AcDbSymbolTableRecord
100
AcDbLinetypeTableRecord
  2
DASHDOTX2
 70
0
  3
Dash dot (2x) ____  .  ____  .  ____  .  ___
 72
65
 73
4
 40
50.799999999999997
 49
25.399999999999999
 74
0
 49
-12.699999999999999
 74
0
 49
0.0
 74
0
 49
-12.699999999999999
 74
0
  0
LTYPE
  5
3E
100
AcDbSymbolTableRecord
100
AcDbLinetypeTableRecord
  2
DASHED
 70
0
  3
Dashed __ __ __ __ __ __ __ __ __ __ __ __ __ _
 72
65
 73
2
 40
19.050000000000001
 49
12.699999999999999
 74
0
 49
-6.3499999999999996
 74
0
  0
LTYPE
  5
3F
100
AcDbSymbolTableRecord
100
AcDbLinetypeTableRecord
  2
DASHED2
 70
0
  3
Dashed (.5x) _ _ _ _ _ _ _ _ _ _ _ _ _ _ _ _ _
 72
65
 73
2
 40
9.5250000000000004
 49
6.3499999999999996
 74
0
 49
-3.1749999999999998
 74
0
  0
LTYPE
  5
40
100
AcDbSymbolTableRecord
100
AcDbLinetypeTableRecord
  2
DASHEDX2
 70
0
  3
Dashed (2x) ____  ____  ____  ____  ____  ___
 72
65
 73
2
 40
38.100000000000001
 49
25.399999999999999
 74
0
 49
-12.699999999999999
 74
0
  0
LTYPE
  5
41
100
AcDbSymbolTableRecord
100
AcDbLinetypeTableRecord
  2
DIVIDE
 70
0
  3
Divide ____ . . ____ . . ____ . . ____ . . ____
 72
65
 73
6
 40
31.75
 49
12.699999999999999
 74
0
 49
-6.3499999999999996
 74
0
 49
0.0
 74
0
 49
-6.3499999999999996
 74
0
 49
0.0
 74
0
 49
-6.3499999999999996
 74
0
  0
LTYPE
  5
42
100
AcDbSymbolTableRecord
100
AcDbLinetypeTableRecord
  2
DIVIDE2
 70
0
  3
Divide (.5x) __..__..__..__..__..__..__..__.._
 72
65
 73
6
 40
15.875
 49
6.3499999999999996
 74
0
 49
-3.1749999999999998
 74
0
 49
0.0
 74
0
 49
-3.1749999999999998
 74
0
 49
0.0
 74
0
 49
-3.1749999999999998
 74
0
  0
LTYPE
  5
43
100
AcDbSymbolTableRecord
100
AcDbLinetypeTableRecord
  2
DIVIDEX2
 70
0
  3
Divide (2x) ________  .  .  ________  .  .  _
 72
65
 73
6
 40
63.5
 49
25.399999999999999
 74
0
 49
-12.699999999999999
 74
0
 49
0.0
 74
0
 49
-12.699999999999999
 74
0
 49
0.0
 74
0
 49
-12.699999999999999
 74
0
  0
LTYPE
  5
44
100
AcDbSymbolTableRecord
100
AcDbLinetypeTableRecord
  2
DOT
 70
0
  3
Dot . . . . . . . . . . . . . . . . . . . . . .
 72
65
 73
2
 40
6.3499999999999996
 49
0.0
 74
0
 49
-6.3499999999999996
 74
0
  0
LTYPE
  5
45
100
AcDbSymbolTableRecord
100
AcDbLinetypeTableRecord
  2
DOT2
 70
0
  3
Dot (.5x) .....................................
 72
65
 73
2
 40
3.1749999999999998
 49
0.0
 74
0
 49
-3.1749999999999998
 74
0
  0
LTYPE
  5
46
100
AcDbSymbolTableRecord
100
AcDbLinetypeTableRecord
  2
DOTX2
 70
0
  3
Dot (2x) .  .  .  .  .  .  .  .  .  .  .  .  .
 72
65
 73
2
 40
12.699999999999999
 49
0.0
 74
0
 49
-12.699999999999999
 74
0
  0
ENDTAB
  0
TABLE
  2
LAYER
  5
2
100
AcDbSymbolTable
 70
4
  0
LAYER
  5
10
100
AcDbSymbolTableRecord
100
AcDbLayerTableRecord
  2
0
 70
0
 62
250
  6
CONTINUOUS
370
100
390
F
  0
LAYER
  5
47
100
AcDbSymbolTableRecord
100
AcDbLayerTableRecord
  2
color#00000000
 70
0
 62
7
  6
CONTINUOUS
370
100
390
F
  0
LAYER
  5
48
100
AcDbSymbolTableRecord
100
AcDbLayerTableRecord
  2
color#6d6e71ff
 70
0
 62
7
  6
CONTINUOUS
370
100
390
F
  0
LAYER
  5
49
100
AcDbSymbolTableRecord
100
AcDbLayerTableRecord
  2
color#98d93aff
 70
0
 62
7
  6
CONTINUOUS
370
100
390
F
  0
ENDTAB
  0
TABLE
  2
STYLE
  5
3
100
AcDbSymbolTable
 70
1
  0
STYLE
  5
11
100
AcDbSymbolTableRecord
100
AcDbTextStyleTableRecord
  2
Standard
 70
0
 40
0.0
 41
0.75
 50
0.0
 71
0
 42
2.5
  3
txt
  4

  0
ENDTAB
  0
TABLE
  2
VIEW
  5
6
100
AcDbSymbolTable
 70
0
  0
ENDTAB
  0
TABLE
  2
UCS
  5
7
100
AcDbSymbolTable
 70
0
  0
ENDTAB
  0
TABLE
  2
APPID
  5
9
100
AcDbSymbolTable
 70
1
  0
APPID
  5
12
100
AcDbSymbolTableRecord
100
AcDbRegAppTableRecord
  2
ACAD
 70
0
  0
ENDTAB
  0
TABLE
  2
DIMSTYLE
  5
A
100
AcDbSymbolTable
 70
1
100
AcDbDimStyleTable
 71
0
  0
DIMSTYLE
105
27
100
AcDbSymbolTableRecord
100
AcDbDimStyleTableRecord
  2
Standard
 41
1.0
 42
1.0
 43
3.75
 44
1.0
 70
0
 73
0
 74
0
 77
1
 78
8
140
1.0
141
2.5
143
0.03937007874016
147
1.0
171
3
172
1
271
2
272
2
274
3
278
44
283
0
284
8
340
11
  0
ENDTAB
  0
TABLE
  2
BLOCK_RECORD
  5
1
100
AcDbSymbolTable
 70
1
  0
BLOCK_RECORD
  5
1F
100
AcDbSymbolTableRecord
100
AcDbBlockTableRecord
  2
*Model_Space
340
22
  0
BLOCK_RECORD
  5
1B
100
AcDbSymbolTableRecord
100
AcDbBlockTableRecord
  2
*Paper_Space
340
1E
  0
BLOCK_RECORD
  5
23
100
AcDbSymbolTableRecord
100
AcDbBlockTableRecord
  2
*Paper_Space0
340
26
  0
ENDTAB
  0
ENDSEC
  0
SECTION
  2
BLOCKS
  0
BLOCK
  5
20
100
AcDbEntity
  8
0
100
AcDbBlockBegin
  2
*Model_Space
 70
0
 10
0.0
 20
0.0
 30
0.0
  3
*Model_Space
  1

  0
ENDBLK
  5
21
100
AcDbEntity
  8
0
100
AcDbBlockEnd
  0
BLOCK
  5
1C
100
AcDbEntity
 67
1
  8
0
100
AcDbBlockBegin
  2
*Paper_Space
 70
0
 10
0.0
 20
0.0
 30
0.0
  3
*Paper_Space
  1

  0
ENDBLK
  5
1D
100
AcDbEntity
 67
1
  8
0
100
AcDbBlockEnd
  0
BLOCK
  5
24
100
AcDbEntity
  8
0
100
AcDbBlockBegin
  2
*Paper_Space0
 70
0
 10
0.0
 20
0.0
 30
0.0
  3
*Paper_Space0
  1

  0
ENDBLK
  5
25
100
AcDbEntity
  8
0
100
AcDbBlockEnd
  0
ENDSEC
  0
SECTION
  2
ENTITIES
  0
LINE
  5
4A
100
AcDbEntity
100
AcDbLine
  8
color#98d93aff
 62
256
370
-1
  6
BYLAYER
 10
1.0805911692478034
 20
1.4899949930346483
 30
0.0
 11
1.0858588197036925
 21
1.4946832178088434
 31
0.0
  0
LINE
  5
4B
100
AcDbEntity
100
AcDbLine
  8
color#98d93aff
 62
256
370
-1
  6
BYLAYER
 10
1.0858588197036925
 20
1.4946832178088434
 30
0.0
 11
1.0948166659051735
 21
1.4974071621248088
 31
0.0
  0
LINE
  5
4C
100
AcDbEntity
100
AcDbLine
  8
color#98d93aff
 62
256
370
-1
  6
BYLAYER
 10
1.0948166659051735
 20
1.4974071621248088
 30
0.0
 11
1.1143831599652883
 21
1.4903468410889427
 31
0.0
  0
LINE
  5
4D
100
AcDbEntity
100
AcDbLine
  8
color#98d93aff
 62
256
370
-1
  6
BYLAYER
 10
1.1143831599652883
 20
1.4903468410889427
 30
0.0
 11
1.1213842357018697
 21
1.4835006690740531
 31
0.0
  0
LINE
  5
4E
100
AcDbEntity
100
AcDbLine
  8
color#98d93aff
 62
256
370
-1
  6
BYLAYER
 10
1.1213842357018697
 20
1.4835006690740531
 30
0.0
 11
1.2599470308482752
 21
1.3432927016615823
 31
0.0
  0
LINE
  5
4F
100
AcDbEntity
100
AcDbLine
  8
color#98d93aff
 62
256
370
-1
  6
BYLAYER
 10
1.2599470308482752
 20
1.3432927016615823
 30
0.0
 11
1.2966931323773006
 21
1.3058844022937881
 31
0.0
  0
LINE
  5
50
100
AcDbEntity
100
AcDbLine
  8
color#98d93aff
 62
256
370
-1
  6
BYLAYER
 10
1.2966931323773006
 20
1.3058844022937881
 30
0.0
 11
1.3191516895090893
 21
1.2786993126709705
 31
0.0
  0
LINE
  5
51
100
AcDbEntity
100
AcDbLine
  8
color#98d93aff
 62
256
370
-1
  6
BYLAYER
 10
1.3191516895090893
 20
1.2786993126709705
 30
0.0
 11
1.334310984588331
 21
1.2571413541180809
 31
0.0
  0
LINE
  5
52
100
AcDbEntity
100
AcDbLine
  8
color#98d93aff
 62
256
370
-1
  6
BYLAYER
 10
1.334310984588331
 20
1.2571413541180809
 30
0.0
 11
1.3434124866718373
 21
1.2422159860012165
 31
0.0
  0
LINE
  5
53
100
AcDbEntity
100
AcDbLine
  8
color#98d93aff
 62
256
370
-1
  6
BYLAYER
 10
1.3434124866718373
 20
1.2422159860012165
 30
0.0
 11
1.3515842372047815
 21
1.2268499784011142
 31
0.0
  0
LINE
  5
54
100
AcDbEntity
100
AcDbLine
  8
color#98d93aff
 62
256
370
-1
  6
BYLAYER
 10
1.3515842372047815
 20
1.2268499784011142
 30
0.0
 11
1.358718239751362
 21
1.2110451117023857
 31
0.0
  0
LINE
  5
55
100
AcDbEntity
100
AcDbLine
  8
color#98d93aff
 62
256
370
-1
  6
BYLAYER
 10
1.358718239751362
 20
1.2110451117023857
 30
0.0
 11
1.3618623366435771
 21
1.2029786625612269
 31
0.0
  0
LINE
  5
56
100
AcDbEntity
100
AcDbLine
  8
color#98d93aff
 62
256
370
-1
  6
BYLAYER
 10
1.3618623366435771
 20
1.2029786625612269
 30
0.0
 11
1.3647064978757748
 21
1.1948031662896408
 31
0.0
  0
LINE
  5
57
100
AcDbEntity
100
AcDbLine
  8
color#98d93aff
 62
256
370
-1
  6
BYLAYER
 10
1.3647064978757748
 20
1.1948031662896408
 30
0.0
 11
1.3672372238934802
 21
1.1865188454357039
 31
0.0
  0
LINE
  5
58
100
AcDbEntity
100
AcDbLine
  8
color#98d93aff
 62
256
370
-1
  6
BYLAYER
 10
1.3672372238934802
 20
1.1865188454357039
 30
0.0
 11
1.3694410151422172
 21
1.1781259225474916
 31
0.0
  0
LINE
  5
59
100
AcDbEntity
100
AcDbLine
  8
color#98d93aff
 62
256
370
-1
  6
BYLAYER
 10
1.3694410151422172
 20
1.1781259225474916
 30
0.0
 11
1.3713043720675107
 21
1.1696246201730813
 31
0.0
  0
LINE
  5
5A
100
AcDbEntity
100
AcDbLine
  8
color#98d93aff
 62
256
370
-1
  6
BYLAYER
 10
1.3713043720675107
 20
1.1696246201730813
 30
0.0
 11
1.3728137951148855
 21
1.161015160860549
 31
0.0
  0
LINE
  5
5B
100
AcDbEntity
100
AcDbLine
  8
color#98d93aff
 62
256
370
-1
  6
BYLAYER
 10
1.3728137951148855
 20
1.161015160860549
 30
0.0
 11
1.3739557847298658
 21
1.1522977671579708
 31
0.0
  0
LINE
  5
5C
100
AcDbEntity
100
AcDbLine
  8
color#98d93aff
 62
256
370
-1
  6
BYLAYER
 10
1.3739557847298658
 20
1.1522977671579708
 30
0.0
 11
1.3747168413579762
 21
1.1434726616134236
 31
0.0
  0
LINE
  5
5D
100
AcDbEntity
100
AcDbLine
  8
color#98d93aff
 62
256
370
-1
  6
BYLAYER
 10
1.3747168413579762
 20
1.1434726616134236
 30
0.0
 11
1.3750834654447417
 21
1.1345400667749834
 31
0.0
  0
LINE
  5
5E
100
AcDbEntity
100
AcDbLine
  8
color#98d93aff
 62
256
370
-1
  6
BYLAYER
 10
1.3750834654447417
 20
1.1345400667749834
 30
0.0
 11
1.3750421574356868
 21
1.1255002051907268
 31
0.0
  0
LINE
  5
5F
100
AcDbEntity
100
AcDbLine
  8
color#98d93aff
 62
256
370
-1
  6
BYLAYER
 10
1.3750421574356868
 20
1.1255002051907268
 30
0.0
 11
1.3756770332958428
 21
1.1112323975084479
 31
0.0
  0
LINE
  5
60
100
AcDbEntity
100
AcDbLine
  8
color#98d93aff
 62
256
370
-1
  6
BYLAYER
 10
1.3756770332958428
 20
1.1112323975084479
 30
0.0
 11
1.3754860599886216
 21
1.097017164444374
 31
0.0
  0
LINE
  5
61
100
AcDbEntity
100
AcDbLine
  8
color#98d93aff
 62
256
370
-1
  6
BYLAYER
 10
1.3754860599886216
 20
1.097017164444374
 30
0.0
 11
1.3744914827115315
 21
1.0828822428510883
 31
0.0
  0
LINE
  5
62
100
AcDbEntity
100
AcDbLine
  8
color#98d93aff
 62
256
370
-1
  6
BYLAYER
 10
1.3744914827115315
 20
1.0828822428510883
 30
0.0
 11
1.3727155466620768
 21
1.0688553695811736
 31
0.0
  0
LINE
  5
63
100
AcDbEntity
100
AcDbLine
  8
color#98d93aff
 62
256
370
-1
  6
BYLAYER
 10
1.3727155466620768
 20
1.0688553695811736
 30
0.0
 11
1.3701804970377651
 21
1.0549642814872133
 31
0.0
  0
LINE
  5
64
100
AcDbEntity
100
AcDbLine
  8
color#98d93aff
 62
256
370
-1
  6
BYLAYER
 10
1.3701804970377651
 20
1.0549642814872133
 30
0.0
 11
1.3669085790361013
 21
1.0412367154217905
 31
0.0
  0
LINE
  5
65
100
AcDbEntity
100
AcDbLine
  8
color#98d93aff
 62
256
370
-1
  6
BYLAYER
 10
1.3669085790361013
 20
1.0412367154217905
 30
0.0
 11
1.3629220378545923
 21
1.0277004082374885
 31
0.0
  0
LINE
  5
66
100
AcDbEntity
100
AcDbLine
  8
color#98d93aff
 62
256
370
-1
  6
BYLAYER
 10
1.3629220378545923
 20
1.0277004082374885
 30
0.0
 11
1.3582431186907444
 21
1.0143830967868901
 31
0.0
  0
LINE
  5
67
100
AcDbEntity
100
AcDbLine
  8
color#98d93aff
 62
256
370
-1
  6
BYLAYER
 10
1.3582431186907444
 20
1.0143830967868901
 30
0.0
 11
1.3528940667420635
 21
1.0013125179225784
 31
0.0
  0
LINE
  5
68
100
AcDbEntity
100
AcDbLine
  8
color#98d93aff
 62
256
370
-1
  6
BYLAYER
 10
1.3528940667420635
 20
1.0013125179225784
 30
0.0
 11
1.3468971272060553
 21
0.9885164084971367
 31
0.0
  0
LINE
  5
69
100
AcDbEntity
100
AcDbLine
  8
color#98d93aff
 62
256
370
-1
  6
BYLAYER
 10
1.3468971272060553
 20
0.9885164084971367
 30
0.0
 11
1.3402745452802272
 21
0.9760225053631485
 31
0.0
  0
LINE
  5
6A
100
AcDbEntity
100
AcDbLine
  8
color#98d93aff
 62
256
370
-1
  6
BYLAYER
 10
1.3402745452802272
 20
0.9760225053631485
 30
0.0
 11
1.3330485661620846
 21
0.963858545373196
 31
0.0
  0
LINE
  5
6B
100
AcDbEntity
100
AcDbLine
  8
color#98d93aff
 62
256
370
-1
  6
BYLAYER
 10
1.3330485661620846
 20
0.963858545373196
 30
0.0
 11
1.3252414350491331
 21
0.9520522653798631
 31
0.0
  0
LINE
  5
6C
100
AcDbEntity
100
AcDbLine
  8
color#98d93aff
 62
256
370
-1
  6
BYLAYER
 10
1.3252414350491331
 20
0.9520522653798631
 30
0.0
 11
1.31687539713888
 21
0.9406314022357326
 31
0.0
  0
LINE
  5
6D
100
AcDbEntity
100
AcDbLine
  8
color#98d93aff
 62
256
370
-1
  6
BYLAYER
 10
1.31687539713888
 20
0.9406314022357326
 30
0.0
 11
1.3079726976288308
 21
0.9296236927933879
 31
0.0
  0
LINE
  5
6E
100
AcDbEntity
100
AcDbLine
  8
color#98d93aff
 62
256
370
-1
  6
BYLAYER
 10
1.3079726976288308
 20
0.9296236927933879
 30
0.0
 11
1.2985555817164922
 21
0.9190568739054115
 31
0.0
  0
LINE
  5
6F
100
AcDbEntity
100
AcDbLine
  8
color#98d93aff
 62
256
370
-1
  6
BYLAYER
 10
1.2985555817164922
 20
0.9190568739054115
 30
0.0
 11
1.2886462945993697
 21
0.9089586824243874
 31
0.0
  0
LINE
  5
70
100
AcDbEntity
100
AcDbLine
  8
color#98d93aff
 62
256
370
-1
  6
BYLAYER
 10
1.2886462945993697
 20
0.9089586824243874
 30
0.0
 11
1.2782670814749699
 21
0.8993568552028981
 31
0.0
  0
LINE
  5
71
100
AcDbEntity
100
AcDbLine
  8
color#98d93aff
 62
256
370
-1
  6
BYLAYER
 10
1.2782670814749699
 20
0.8993568552028981
 30
0.0
 11
1.267440187540799
 21
0.8902791290935268
 31
0.0
  0
LINE
  5
72
100
AcDbEntity
100
AcDbLine
  8
color#98d93aff
 62
256
370
-1
  6
BYLAYER
 10
1.267440187540799
 20
0.8902791290935268
 30
0.0
 11
1.2561878579943631
 21
0.8817532409488565
 31
0.0
  0
LINE
  5
73
100
AcDbEntity
100
AcDbLine
  8
color#98d93aff
 62
256
370
-1
  6
BYLAYER
 10
1.2561878579943631
 20
0.8817532409488565
 30
0.0
 11
1.2445323380331681
 21
0.8738069276214709
 31
0.0
  0
LINE
  5
74
100
AcDbEntity
100
AcDbLine
  8
color#98d93aff
 62
256
370
-1
  6
BYLAYER
 10
1.2445323380331681
 20
0.8738069276214709
 30
0.0
 11
1.2324958728547206
 21
0.8664679259639526
 31
0.0
  0
LINE
  5
75
100
AcDbEntity
100
AcDbLine
  8
color#98d93aff
 62
256
370
-1
  6
BYLAYER
 10
1.2324958728547206
 20
0.8664679259639526
 30
0.0
 11
1.2201007076565267
 21
0.8597639728288848
 31
0.0
  0
LINE
  5
76
100
AcDbEntity
100
AcDbLine
  8
color#98d93aff
 62
256
370
-1
  6
BYLAYER
 10
1.2201007076565267
 20
0.8597639728288848
 30
0.0
 11
1.2073690876360925
 21
0.8537228050688509
 31
0.0
  0
LINE
  5
77
100
AcDbEntity
100
AcDbLine
  8
color#98d93aff
 62
256
370
-1
  6
BYLAYER
 10
1.2073690876360925
 20
0.8537228050688509
 30
0.0
 11
1.194323257990924
 21
0.8483721595364339
 31
0.0
  0
LINE
  5
78
100
AcDbEntity
100
AcDbLine
  8
color#98d93aff
 62
256
370
-1
  6
BYLAYER
 10
1.194323257990924
 20
0.8483721595364339
 30
0.0
 11
1.1809854639185275
 21
0.8437397730842164
 31
0.0
  0
LINE
  5
79
100
AcDbEntity
100
AcDbLine
  8
color#98d93aff
 62
256
370
-1
  6
BYLAYER
 10
1.1809854639185275
 20
0.8437397730842164
 30
0.0
 11
1.1673779506164095
 21
0.8398533825647824
 31
0.0
  0
LINE
  5
7A
100
AcDbEntity
100
AcDbLine
  8
color#98d93aff
 62
256
370
-1
  6
BYLAYER
 10
1.1673779506164095
 20
0.8398533825647824
 30
0.0
 11
1.1535229632820756
 21
0.8367407248307144
 31
0.0
  0
LINE
  5
7B
100
AcDbEntity
100
AcDbLine
  8
color#98d93aff
 62
256
370
-1
  6
BYLAYER
 10
1.1535229632820756
 20
0.8367407248307144
 30
0.0
 11
1.1394427471130322
 21
0.8344295367345957
 31
0.0
  0
LINE
  5
7C
100
AcDbEntity
100
AcDbLine
  8
color#98d93aff
 62
256
370
-1
  6
BYLAYER
 10
1.1394427471130322
 20
0.8344295367345957
 30
0.0
 11
1.1281114484272818
 21
0.8330656546722084
 31
0.0
  0
LINE
  5
7D
100
AcDbEntity
100
AcDbLine
  8
color#98d93aff
 62
256
370
-1
  6
BYLAYER
 10
1.1281114484272818
 20
0.8330656546722084
 30
0.0
 11
1.1167426567694407
 21
0.832194407725852
 31
0.0
  0
LINE
  5
7E
100
AcDbEntity
100
AcDbLine
  8
color#98d93aff
 62
256
370
-1
  6
BYLAYER
 10
1.1167426567694407
 20
0.832194407725852
 30
0.0
 11
1.1053533545176044
 21
0.8318087758280015
 31
0.0
  0
LINE
  5
7F
100
AcDbEntity
100
AcDbLine
  8
color#98d93aff
 62
256
370
-1
  6
BYLAYER
 10
1.1053533545176044
 20
0.8318087758280015
 30
0.0
 11
1.0939605240498669
 21
0.8319017389111331
 31
0.0
  0
LINE
  5
80
100
AcDbEntity
100
AcDbLine
  8
color#98d93aff
 62
256
370
-1
  6
BYLAYER
 10
1.0939605240498669
 20
0.8319017389111331
 30
0.0
 11
1.0825811477443237
 21
0.832466276907721
 31
0.0
  0
LINE
  5
81
100
AcDbEntity
100
AcDbLine
  8
color#98d93aff
 62
256
370
-1
  6
BYLAYER
 10
1.0825811477443237
 20
0.832466276907721
 30
0.0
 11
1.071232207979069
 21
0.8334953697502416
 31
0.0
  0
LINE
  5
82
100
AcDbEntity
100
AcDbLine
  8
color#98d93aff
 62
256
370
-1
  6
BYLAYER
 10
1.071232207979069
 20
0.8334953697502416
 30
0.0
 11
1.0599306871321974
 21
0.8349819973711703
 31
0.0
  0
LINE
  5
83
100
AcDbEntity
100
AcDbLine
  8
color#98d93aff
 62
256
370
-1
  6
BYLAYER
 10
1.0599306871321974
 20
0.8349819973711703
 30
0.0
 11
1.0486935675818043
 21
0.8369191397029819
 31
0.0
  0
LINE
  5
84
100
AcDbEntity
100
AcDbLine
  8
color#98d93aff
 62
256
370
-1
  6
BYLAYER
 10
1.0486935675818043
 20
0.8369191397029819
 30
0.0
 11
1.0375378317059842
 21
0.8392997766781523
 31
0.0
  0
LINE
  5
85
100
AcDbEntity
100
AcDbLine
  8
color#98d93aff
 62
256
370
-1
  6
BYLAYER
 10
1.0375378317059842
 20
0.8392997766781523
 30
0.0
 11
1.0264804618828309
 21
0.8421168882291571
 31
0.0
  0
LINE
  5
86
100
AcDbEntity
100
AcDbLine
  8
color#98d93aff
 62
256
370
-1
  6
BYLAYER
 10
1.0264804618828309
 20
0.8421168882291571
 30
0.0
 11
1.0155384404904404
 21
0.8453634542884714
 31
0.0
  0
LINE
  5
87
100
AcDbEntity
100
AcDbLine
  8
color#98d93aff
 62
256
370
-1
  6
BYLAYER
 10
1.0155384404904404
 20
0.8453634542884714
 30
0.0
 11
1.0047287499069071
 21
0.8490324547885704
 31
0.0
  0
LINE
  5
88
100
AcDbEntity
100
AcDbLine
  8
color#98d93aff
 62
256
370
-1
  6
BYLAYER
 10
1.0047287499069071
 20
0.8490324547885704
 30
0.0
 11
0.9940683725103245
 21
0.8531168696619301
 31
0.0
  0
LINE
  5
89
100
AcDbEntity
100
AcDbLine
  8
color#98d93aff
 62
256
370
-1
  6
BYLAYER
 10
0.9940683725103245
 20
0.8531168696619301
 30
0.0
 11
0.983574290678789
 21
0.8576096788410258
 31
0.0
  0
LINE
  5
8A
100
AcDbEntity
100
AcDbLine
  8
color#98d93aff
 62
256
370
-1
  6
BYLAYER
 10
0.983574290678789
 20
0.8576096788410258
 30
0.0
 11
0.9732634867903943
 21
0.8625038622583326
 31
0.0
  0
LINE
  5
8B
100
AcDbEntity
100
AcDbLine
  8
color#98d93aff
 62
256
370
-1
  6
BYLAYER
 10
0.9732634867903943
 20
0.8625038622583326
 30
0.0
 11
0.9631529432232354
 21
0.8677923998463264
 31
0.0
  0
LINE
  5
8C
100
AcDbEntity
100
AcDbLine
  8
color#98d93aff
 62
256
370
-1
  6
BYLAYER
 10
0.9631529432232354
 20
0.8677923998463264
 30
0.0
 11
0.9532596423554072
 21
0.8734682715374823
 31
0.0
  0
LINE
  5
8D
100
AcDbEntity
100
AcDbLine
  8
color#98d93aff
 62
256
370
-1
  6
BYLAYER
 10
0.9532596423554072
 20
0.8734682715374823
 30
0.0
 11
0.9436005665650041
 21
0.8795244572642756
 31
0.0
  0
LINE
  5
8E
100
AcDbEntity
100
AcDbLine
  8
color#98d93aff
 62
256
370
-1
  6
BYLAYER
 10
0.9436005665650041
 20
0.8795244572642756
 30
0.0
 11
0.9341926982301211
 21
0.885953936959182
 31
0.0
  0
LINE
  5
8F
100
AcDbEntity
100
AcDbLine
  8
color#98d93aff
 62
256
370
-1
  6
BYLAYER
 10
0.9341926982301211
 20
0.885953936959182
 30
0.0
 11
0.9250530197288527
 21
0.8927496905546771
 31
0.0
  0
LINE
  5
90
100
AcDbEntity
100
AcDbLine
  8
color#98d93aff
 62
256
370
-1
  6
BYLAYER
 10
0.9250530197288527
 20
0.8927496905546771
 30
0.0
 11
0.9161985134392936
 21
0.8999046979832358
 31
0.0
  0
LINE
  5
91
100
AcDbEntity
100
AcDbLine
  8
color#98d93aff
 62
256
370
-1
  6
BYLAYER
 10
0.9161985134392936
 20
0.8999046979832358
 30
0.0
 11
0.9076461617395387
 21
0.907411939177334
 31
0.0
  0
LINE
  5
92
100
AcDbEntity
100
AcDbLine
  8
color#98d93aff
 62
256
370
-1
  6
BYLAYER
 10
0.9076461617395387
 20
0.907411939177334
 30
0.0
 11
0.8994129470076828
 21
0.915264394069447
 31
0.0
  0
LINE
  5
93
100
AcDbEntity
100
AcDbLine
  8
color#98d93aff
 62
256
370
-1
  6
BYLAYER
 10
0.8994129470076828
 20
0.915264394069447
 30
0.0
 11
0.8915158516218205
 21
0.9234550425920501
 31
0.0
  0
LINE
  5
94
100
AcDbEntity
100
AcDbLine
  8
color#98d93aff
 62
256
370
-1
  6
BYLAYER
 10
0.8915158516218205
 20
0.9234550425920501
 30
0.0
 11
0.8839718579600463
 21
0.931976864677619
 31
0.0
  0
LINE
  5
95
100
AcDbEntity
100
AcDbLine
  8
color#98d93aff
 62
256
370
-1
  6
BYLAYER
 10
0.8839718579600463
 20
0.931976864677619
 30
0.0
 11
0.8767979484004549
 21
0.9408228402586288
 31
0.0
  0
LINE
  5
96
100
AcDbEntity
100
AcDbLine
  8
color#98d93aff
 62
256
370
-1
  6
BYLAYER
 10
0.8767979484004549
 20
0.9408228402586288
 30
0.0
 11
0.8700111053211413
 21
0.949985949267555
 31
0.0
  0
LINE
  5
97
100
AcDbEntity
100
AcDbLine
  8
color#98d93aff
 62
256
370
-1
  6
BYLAYER
 10
0.8700111053211413
 20
0.949985949267555
 30
0.0
 11
0.8636283111002003
 21
0.9594591716368733
 31
0.0
  0
LINE
  5
98
100
AcDbEntity
100
AcDbLine
  8
color#98d93aff
 62
256
370
-1
  6
BYLAYER
 10
0.8636283111002003
 20
0.9594591716368733
 30
0.0
 11
0.8576665481157262
 21
0.9692354872990588
 31
0.0
  0
LINE
  5
99
100
AcDbEntity
100
AcDbLine
  8
color#98d93aff
 62
256
370
-1
  6
BYLAYER
 10
0.8576665481157262
 20
0.9692354872990588
 30
0.0
 11
0.8517759415431869
 21
0.9796669289283551
 31
0.0
  0
LINE
  5
9A
100
AcDbEntity
100
AcDbLine
  8
color#98d93aff
 62
256
370
-1
  6
BYLAYER
 10
0.8517759415431869
 20
0.9796669289283551
 30
0.0
 11
0.8463611289150416
 21
0.9903574373894996
 31
0.0
  0
LINE
  5
9B
100
AcDbEntity
100
AcDbLine
  8
color#98d93aff
 62
256
370
-1
  6
BYLAYER
 10
0.8463611289150416
 20
0.9903574373894996
 30
0.0
 11
0.8414240623529447
 21
1.0012840980993305
 31
0.0
  0
LINE
  5
9C
100
AcDbEntity
100
AcDbLine
  8
color#98d93aff
 62
256
370
-1
  6
BYLAYER
 10
0.8414240623529447
 20
1.0012840980993305
 30
0.0
 11
0.8369666939785503
 21
1.0124239964746877
 31
0.0
  0
LINE
  5
9D
100
AcDbEntity
100
AcDbLine
  8
color#98d93aff
 62
256
370
-1
  6
BYLAYER
 10
0.8369666939785503
 20
1.0124239964746877
 30
0.0
 11
0.8329909759135127
 21
1.0237542179324102
 31
0.0
  0
LINE
  5
9E
100
AcDbEntity
100
AcDbLine
  8
color#98d93aff
 62
256
370
-1
  6
BYLAYER
 10
0.8329909759135127
 20
1.0237542179324102
 30
0.0
 11
0.8294988602794856
 21
1.0352518478893373
 31
0.0
  0
LINE
  5
9F
100
AcDbEntity
100
AcDbLine
  8
color#98d93aff
 62
256
370
-1
  6
BYLAYER
 10
0.8294988602794856
 20
1.0352518478893373
 30
0.0
 11
0.826492299198123
 21
1.0468939717623085
 31
0.0
  0
LINE
  5
A0
100
AcDbEntity
100
AcDbLine
  8
color#98d93aff
 62
256
370
-1
  6
BYLAYER
 10
0.826492299198123
 20
1.0468939717623085
 30
0.0
 11
0.8239732447910799
 21
1.0586576749681622
 31
0.0
  0
LINE
  5
A1
100
AcDbEntity
100
AcDbLine
  8
color#98d93aff
 62
256
370
-1
  6
BYLAYER
 10
0.8239732447910799
 20
1.0586576749681622
 30
0.0
 11
0.8219436491800095
 21
1.0705200429237383
 31
0.0
  0
LINE
  5
A2
100
AcDbEntity
100
AcDbLine
  8
color#98d93aff
 62
256
370
-1
  6
BYLAYER
 10
0.8219436491800095
 20
1.0705200429237383
 30
0.0
 11
0.8204054644865663
 21
1.0824581610458759
 31
0.0
  0
LINE
  5
A3
100
AcDbEntity
100
AcDbLine
  8
color#98d93aff
 62
256
370
-1
  6
BYLAYER
 10
0.8204054644865663
 20
1.0824581610458759
 30
0.0
 11
0.819360642832404
 21
1.0944491147514142
 31
0.0
  0
LINE
  5
A4
100
AcDbEntity
100
AcDbLine
  8
color#98d93aff
 62
256
370
-1
  6
BYLAYER
 10
0.819360642832404
 20
1.0944491147514142
 30
0.0
 11
0.8188111363391775
 21
1.1064699894571919
 31
0.0
  0
LINE
  5
A5
100
AcDbEntity
100
AcDbLine
  8
color#98d93aff
 62
256
370
-1
  6
BYLAYER
 10
0.8188111363391775
 20
1.1064699894571919
 30
0.0
 11
0.8187588971285398
 21
1.1184978705800495
 31
0.0
  0
LINE
  5
A6
100
AcDbEntity
100
AcDbLine
  8
color#98d93aff
 62
256
370
-1
  6
BYLAYER
 10
0.8187588971285398
 20
1.1184978705800495
 30
0.0
 11
0.819205877322146
 21
1.1305098435368248
 31
0.0
  0
LINE
  5
A7
100
AcDbEntity
100
AcDbLine
  8
color#98d93aff
 62
256
370
-1
  6
BYLAYER
 10
0.819205877322146
 20
1.1305098435368248
 30
0.0
 11
0.8201540290416495
 21
1.1424829937443579
 31
0.0
  0
LINE
  5
A8
100
AcDbEntity
100
AcDbLine
  8
color#98d93aff
 62
256
370
-1
  6
BYLAYER
 10
0.8201540290416495
 20
1.1424829937443579
 30
0.0
 11
0.8216053044087049
 21
1.1543944066194878
 31
0.0
  0
LINE
  5
A9
100
AcDbEntity
100
AcDbLine
  8
color#98d93aff
 62
256
370
-1
  6
BYLAYER
 10
0.8216053044087049
 20
1.1543944066194878
 30
0.0
 11
0.823561655544966
 21
1.1662211675790535
 31
0.0
  0
LINE
  5
AA
100
AcDbEntity
100
AcDbLine
  8
color#98d93aff
 62
256
370
-1
  6
BYLAYER
 10
0.823561655544966
 20
1.1662211675790535
 30
0.0
 11
0.826025034572087
 21
1.1779403620398945
 31
0.0
  0
LINE
  5
AB
100
AcDbEntity
100
AcDbLine
  8
color#98d93aff
 62
256
370
-1
  6
BYLAYER
 10
0.826025034572087
 20
1.1779403620398945
 30
0.0
 11
0.828997393611722
 21
1.1895290754188497
 31
0.0
  0
LINE
  5
AC
100
AcDbEntity
100
AcDbLine
  8
color#98d93aff
 62
256
370
-1
  6
BYLAYER
 10
0.828997393611722
 20
1.1895290754188497
 30
0.0
 11
0.8324806847855251
 21
1.2009643931327587
 31
0.0
  0
LINE
  5
AD
100
AcDbEntity
100
AcDbLine
  8
color#98d93aff
 62
256
370
-1
  6
BYLAYER
 10
0.8324806847855251
 20
1.2009643931327587
 30
0.0
 11
0.8364768602151504
 21
1.2122234005984605
 31
0.0
  0
LINE
  5
AE
100
AcDbEntity
100
AcDbLine
  8
color#98d93aff
 62
256
370
-1
  6
BYLAYER
 10
0.8364768602151504
 20
1.2122234005984605
 30
0.0
 11
0.8409878720222519
 21
1.2232831832327944
 31
0.0
  0
LINE
  5
AF
100
AcDbEntity
100
AcDbLine
  8
color#98d93aff
 62
256
370
-1
  6
BYLAYER
 10
0.8409878720222519
 20
1.2232831832327944
 30
0.0
 11
0.8460156723284837
 21
1.2341208264525996
 31
0.0
  0
LINE
  5
B0
100
AcDbEntity
100
AcDbLine
  8
color#98d93aff
 62
256
370
-1
  6
BYLAYER
 10
0.8460156723284837
 20
1.2341208264525996
 30
0.0
 11
0.8515622132555001
 21
1.2447134156747151
 31
0.0
  0
LINE
  5
B1
100
AcDbEntity
100
AcDbLine
  8
color#98d93aff
 62
256
370
-1
  6
BYLAYER
 10
0.8515622132555001
 20
1.2447134156747151
 30
0.0
 11
0.8576294469249549
 21
1.2550380363159803
 31
0.0
  0
LINE
  5
B2
100
AcDbEntity
100
AcDbLine
  8
color#98d93aff
 62
256
370
-1
  6
BYLAYER
 10
0.8576294469249549
 20
1.2550380363159803
 30
0.0
 11
0.8642193254585027
 21
1.2650717737932347
 31
0.0
  0
LINE
  5
B3
100
AcDbEntity
100
AcDbLine
  8
color#98d93aff
 62
256
370
-1
  6
BYLAYER
 10
0.8642193254585027
 20
1.2650717737932347
 30
0.0
 11
0.871333800977797
 21
1.2747917135233169
 31
0.0
  0
LINE
  5
B4
100
AcDbEntity
100
AcDbLine
  8
color#98d93aff
 62
256
370
-1
  6
BYLAYER
 10
0.871333800977797
 20
1.2747917135233169
 30
0.0
 11
0.8789748256044924
 21
1.2841749409230665
 31
0.0
  0
LINE
  5
B5
100
AcDbEntity
100
AcDbLine
  8
color#98d93aff
 62
256
370
-1
  6
BYLAYER
 10
0.8789748256044924
 20
1.2841749409230665
 30
0.0
 11
0.8871443514602424
 21
1.2931985414093232
 31
0.0
  0
LINE
  5
B6
100
AcDbEntity
100
AcDbLine
  8
color#98d93aff
 62
256
370
-1
  6
BYLAYER
 10
0.8871443514602424
 20
1.2931985414093232
 30
0.0
 11
1.0805911692478034
 21
1.4899949930346483
 31
0.0
  0
LINE
  5
B7
100
AcDbEntity
100
AcDbLine
  8
color#98d93aff
 62
256
370
-1
  6
BYLAYER
 10
0.8475429131202171
 20
0.6117543132539131
 30
0.0
 11
0.8658159844116181
 21
0.6160649798665663
 31
0.0
  0
LINE
  5
B8
100
AcDbEntity
100
AcDbLine
  8
color#98d93aff
 62
256
370
-1
  6
BYLAYER
 10
0.8658159844116181
 20
0.6160649798665663
 30
0.0
 11
0.9510915137815132
 21
0.6556111730853454
 31
0.0
  0
LINE
  5
B9
100
AcDbEntity
100
AcDbLine
  8
color#98d93aff
 62
256
370
-1
  6
BYLAYER
 10
0.9510915137815132
 20
0.6556111730853454
 30
0.0
 11
0.9732527832168966
 21
0.6633517087489752
 31
0.0
  0
LINE
  5
BA
100
AcDbEntity
100
AcDbLine
  8
color#98d93aff
 62
256
370
-1
  6
BYLAYER
 10
0.9732527832168966
 20
0.6633517087489752
 30
0.0
 11
1.1152604848905969
 21
0.6395216257807057
 31
0.0
  0
LINE
  5
BB
100
AcDbEntity
100
AcDbLine
  8
color#98d93aff
 62
256
370
-1
  6
BYLAYER
 10
1.1152604848905969
 20
0.6395216257807057
 30
0.0
 11
1.1383756870626041
 21
0.6387226865283017
 31
0.0
  0
LINE
  5
BC
100
AcDbEntity
100
AcDbLine
  8
color#98d93aff
 62
256
370
-1
  6
BYLAYER
 10
1.1383756870626041
 20
0.6387226865283017
 30
0.0
 11
1.380753434979735
 21
0.6417217827889052
 31
0.0
  0
LINE
  5
BD
100
AcDbEntity
100
AcDbLine
  8
color#98d93aff
 62
256
370
-1
  6
BYLAYER
 10
1.380753434979735
 20
0.6417217827889052
 30
0.0
 11
1.4266244999950364
 21
0.6465752095721946
 31
0.0
  0
LINE
  5
BE
100
AcDbEntity
100
AcDbLine
  8
color#98d93aff
 62
256
370
-1
  6
BYLAYER
 10
1.4266244999950364
 20
0.6465752095721946
 30
0.0
 11
1.4608784527221688
 21
0.6520572611528158
 31
0.0
  0
LINE
  5
BF
100
AcDbEntity
100
AcDbLine
  8
color#98d93aff
 62
256
370
-1
  6
BYLAYER
 10
1.4608784527221688
 20
0.6520572611528158
 30
0.0
 11
1.4722632467119703
 21
0.6542867700984719
 31
0.0
  0
LINE
  5
C0
100
AcDbEntity
100
AcDbLine
  8
color#98d93aff
 62
256
370
-1
  6
BYLAYER
 10
1.4722632467119703
 20
0.6542867700984719
 30
0.0
 11
1.4138284836938331
 21
0.5420360867771614
 31
0.0
  0
LINE
  5
C1
100
AcDbEntity
100
AcDbLine
  8
color#98d93aff
 62
256
370
-1
  6
BYLAYER
 10
1.4138284836938331
 20
0.5420360867771614
 30
0.0
 11
1.3931349883083859
 21
0.5138291238873008
 31
0.0
  0
LINE
  5
C2
100
AcDbEntity
100
AcDbLine
  8
color#98d93aff
 62
256
370
-1
  6
BYLAYER
 10
1.3931349883083859
 20
0.5138291238873008
 30
0.0
 11
1.3791166577903693
 21
0.4981637751076515
 31
0.0
  0
LINE
  5
C3
100
AcDbEntity
100
AcDbLine
  8
color#98d93aff
 62
256
370
-1
  6
BYLAYER
 10
1.3791166577903693
 20
0.4981637751076515
 30
0.0
 11
1.3636837029057929
 21
0.4836450580904855
 31
0.0
  0
LINE
  5
C4
100
AcDbEntity
100
AcDbLine
  8
color#98d93aff
 62
256
370
-1
  6
BYLAYER
 10
1.3636837029057929
 20
0.4836450580904855
 30
0.0
 11
1.3330129144356535
 21
0.4615195536164168
 31
0.0
  0
LINE
  5
C5
100
AcDbEntity
100
AcDbLine
  8
color#98d93aff
 62
256
370
-1
  6
BYLAYER
 10
1.3330129144356535
 20
0.4615195536164168
 30
0.0
 11
1.3007107755094984
 21
0.4415337444736823
 31
0.0
  0
LINE
  5
C6
100
AcDbEntity
100
AcDbLine
  8
color#98d93aff
 62
256
370
-1
  6
BYLAYER
 10
1.3007107755094984
 20
0.4415337444736823
 30
0.0
 11
1.2755194865900208
 21
0.4281903233897712
 31
0.0
  0
LINE
  5
C7
100
AcDbEntity
100
AcDbLine
  8
color#98d93aff
 62
256
370
-1
  6
BYLAYER
 10
1.2755194865900208
 20
0.4281903233897712
 30
0.0
 11
1.2495838359675981
 21
0.4164460893674738
 31
0.0
  0
LINE
  5
C8
100
AcDbEntity
100
AcDbLine
  8
color#98d93aff
 62
256
370
-1
  6
BYLAYER
 10
1.2495838359675981
 20
0.4164460893674738
 30
0.0
 11
1.2229780834687569
 21
0.4064705888801061
 31
0.0
  0
LINE
  5
C9
100
AcDbEntity
100
AcDbLine
  8
color#98d93aff
 62
256
370
-1
  6
BYLAYER
 10
1.2229780834687569
 20
0.4064705888801061
 30
0.0
 11
1.2049053078352365
 21
0.4008866116169789
 31
0.0
  0
LINE
  5
CA
100
AcDbEntity
100
AcDbLine
  8
color#98d93aff
 62
256
370
-1
  6
BYLAYER
 10
1.2049053078352365
 20
0.4008866116169789
 30
0.0
 11
1.1865897164244392
 21
0.3962143281273877
 31
0.0
  0
LINE
  5
CB
100
AcDbEntity
100
AcDbLine
  8
color#98d93aff
 62
256
370
-1
  6
BYLAYER
 10
1.1865897164244392
 20
0.3962143281273877
 30
0.0
 11
1.1680533121479284
 21
0.3925039744034267
 31
0.0
  0
LINE
  5
CC
100
AcDbEntity
100
AcDbLine
  8
color#98d93aff
 62
256
370
-1
  6
BYLAYER
 10
1.1680533121479284
 20
0.3925039744034267
 30
0.0
 11
1.1493180979172684
 21
0.38980578643719
 31
0.0
  0
LINE
  5
CD
100
AcDbEntity
100
AcDbLine
  8
color#98d93aff
 62
256
370
-1
  6
BYLAYER
 10
1.1493180979172684
 20
0.38980578643719
 30
0.0
 11
1.1304060766440225
 21
0.3881700002207708
 31
0.0
  0
LINE
  5
CE
100
AcDbEntity
100
AcDbLine
  8
color#98d93aff
 62
256
370
-1
  6
BYLAYER
 10
1.1304060766440225
 20
0.3881700002207708
 30
0.0
 11
1.111339251239754
 21
0.3876468517462632
 31
0.0
  0
LINE
  5
CF
100
AcDbEntity
100
AcDbLine
  8
color#98d93aff
 62
256
370
-1
  6
BYLAYER
 10
1.111339251239754
 20
0.3876468517462632
 30
0.0
 11
1.0938703480422329
 21
0.387206313990573
 31
0.0
  0
LINE
  5
D0
100
AcDbEntity
100
AcDbLine
  8
color#98d93aff
 62
256
370
-1
  6
BYLAYER
 10
1.0938703480422329
 20
0.387206313990573
 30
0.0
 11
1.0763763299410656
 21
0.3875787198682558
 31
0.0
  0
LINE
  5
D1
100
AcDbEntity
100
AcDbLine
  8
color#98d93aff
 62
256
370
-1
  6
BYLAYER
 10
1.0763763299410656
 20
0.3875787198682558
 30
0.0
 11
1.0588919044023553
 21
0.3887504653308734
 31
0.0
  0
LINE
  5
D2
100
AcDbEntity
100
AcDbLine
  8
color#98d93aff
 62
256
370
-1
  6
BYLAYER
 10
1.0588919044023553
 20
0.3887504653308734
 30
0.0
 11
1.0414517788922051
 21
0.39070794632999
 31
0.0
  0
LINE
  5
D3
100
AcDbEntity
100
AcDbLine
  8
color#98d93aff
 62
256
370
-1
  6
BYLAYER
 10
1.0414517788922051
 20
0.39070794632999
 30
0.0
 11
1.0240906608767189
 21
0.3934375588171675
 31
0.0
  0
LINE
  5
D4
100
AcDbEntity
100
AcDbLine
  8
color#98d93aff
 62
256
370
-1
  6
BYLAYER
 10
1.0240906608767189
 20
0.3934375588171675
 30
0.0
 11
1.0068432578219997
 21
0.3969256987439699
 31
0.0
  0
LINE
  5
D5
100
AcDbEntity
100
AcDbLine
  8
color#98d93aff
 62
256
370
-1
  6
BYLAYER
 10
1.0068432578219997
 20
0.3969256987439699
 30
0.0
 11
0.9897442771941508
 21
0.401158762061961
 31
0.0
  0
LINE
  5
D6
100
AcDbEntity
100
AcDbLine
  8
color#98d93aff
 62
256
370
-1
  6
BYLAYER
 10
0.9897442771941508
 20
0.401158762061961
 30
0.0
 11
0.9728284264592759
 21
0.4061231447227023
 31
0.0
  0
LINE
  5
D7
100
AcDbEntity
100
AcDbLine
  8
color#98d93aff
 62
256
370
-1
  6
BYLAYER
 10
0.9728284264592759
 20
0.4061231447227023
 30
0.0
 11
0.9561304130834784
 21
0.4118052426777583
 31
0.0
  0
LINE
  5
D8
100
AcDbEntity
100
AcDbLine
  8
color#98d93aff
 62
256
370
-1
  6
BYLAYER
 10
0.9561304130834784
 20
0.4118052426777583
 30
0.0
 11
0.9396849445328609
 21
0.4181914518786917
 31
0.0
  0
LINE
  5
D9
100
AcDbEntity
100
AcDbLine
  8
color#98d93aff
 62
256
370
-1
  6
BYLAYER
 10
0.9396849445328609
 20
0.4181914518786917
 30
0.0
 11
0.9235267282735274
 21
0.4252681682770657
 31
0.0
  0
LINE
  5
DA
100
AcDbEntity
100
AcDbLine
  8
color#98d93aff
 62
256
370
-1
  6
BYLAYER
 10
0.9235267282735274
 20
0.4252681682770657
 30
0.0
 11
0.9076904717715818
 21
0.4330217878244432
 31
0.0
  0
LINE
  5
DB
100
AcDbEntity
100
AcDbLine
  8
color#98d93aff
 62
256
370
-1
  6
BYLAYER
 10
0.9076904717715818
 20
0.4330217878244432
 30
0.0
 11
0.892210882493126
 21
0.4414387064723877
 31
0.0
  0
LINE
  5
DC
100
AcDbEntity
100
AcDbLine
  8
color#98d93aff
 62
256
370
-1
  6
BYLAYER
 10
0.892210882493126
 20
0.4414387064723877
 30
0.0
 11
0.8771226679042644
 21
0.4505053201724623
 31
0.0
  0
LINE
  5
DD
100
AcDbEntity
100
AcDbLine
  8
color#98d93aff
 62
256
370
-1
  6
BYLAYER
 10
0.8771226679042644
 20
0.4505053201724623
 30
0.0
 11
0.8624605354711002
 21
0.46020802487623
 31
0.0
  0
LINE
  5
DE
100
AcDbEntity
100
AcDbLine
  8
color#98d93aff
 62
256
370
-1
  6
BYLAYER
 10
0.8624605354711002
 20
0.46020802487623
 30
0.0
 11
0.8482591926597367
 21
0.4705332165352543
 31
0.0
  0
LINE
  5
DF
100
AcDbEntity
100
AcDbLine
  8
color#98d93aff
 62
256
370
-1
  6
BYLAYER
 10
0.8482591926597367
 20
0.4705332165352543
 30
0.0
 11
0.834553346936277
 21
0.4814672911010979
 31
0.0
  0
LINE
  5
E0
100
AcDbEntity
100
AcDbLine
  8
color#98d93aff
 62
256
370
-1
  6
BYLAYER
 10
0.834553346936277
 20
0.4814672911010979
 30
0.0
 11
0.8213777057668249
 21
0.4929966445253244
 31
0.0
  0
LINE
  5
E1
100
AcDbEntity
100
AcDbLine
  8
color#98d93aff
 62
256
370
-1
  6
BYLAYER
 10
0.8213777057668249
 20
0.4929966445253244
 30
0.0
 11
0.8087669766174838
 21
0.5051076727594963
 31
0.0
  0
LINE
  5
E2
100
AcDbEntity
100
AcDbLine
  8
color#98d93aff
 62
256
370
-1
  6
BYLAYER
 10
0.8087669766174838
 20
0.5051076727594963
 30
0.0
 11
0.7967558669543565
 21
0.5177867717551773
 31
0.0
  0
LINE
  5
E3
100
AcDbEntity
100
AcDbLine
  8
color#98d93aff
 62
256
370
-1
  6
BYLAYER
 10
0.7967558669543565
 20
0.5177867717551773
 30
0.0
 11
0.7853790842435469
 21
0.5310203374639304
 31
0.0
  0
LINE
  5
E4
100
AcDbEntity
100
AcDbLine
  8
color#98d93aff
 62
256
370
-1
  6
BYLAYER
 10
0.7853790842435469
 20
0.5310203374639304
 30
0.0
 11
0.7746713359511581
 21
0.5447947658373188
 31
0.0
  0
LINE
  5
E5
100
AcDbEntity
100
AcDbLine
  8
color#98d93aff
 62
256
370
-1
  6
BYLAYER
 10
0.7746713359511581
 20
0.5447947658373188
 30
0.0
 11
0.7646673295432935
 21
0.5590964528269057
 31
0.0
  0
LINE
  5
E6
100
AcDbEntity
100
AcDbLine
  8
color#98d93aff
 62
256
370
-1
  6
BYLAYER
 10
0.7646673295432935
 20
0.5590964528269057
 30
0.0
 11
0.7554017724860564
 21
0.5739117943842542
 31
0.0
  0
LINE
  5
E7
100
AcDbEntity
100
AcDbLine
  8
color#98d93aff
 62
256
370
-1
  6
BYLAYER
 10
0.7554017724860564
 20
0.5739117943842542
 30
0.0
 11
0.7469093722455502
 21
0.5892271864609278
 31
0.0
  0
LINE
  5
E8
100
AcDbEntity
100
AcDbLine
  8
color#98d93aff
 62
256
370
-1
  6
BYLAYER
 10
0.7469093722455502
 20
0.5892271864609278
 30
0.0
 11
0.7392248362878785
 21
0.6050290250084888
 31
0.0
  0
LINE
  5
E9
100
AcDbEntity
100
AcDbLine
  8
color#98d93aff
 62
256
370
-1
  6
BYLAYER
 10
0.7392248362878785
 20
0.6050290250084888
 30
0.0
 11
0.7323828720791442
 21
0.6213037059785012
 31
0.0
  0
LINE
  5
EA
100
AcDbEntity
100
AcDbLine
  8
color#98d93aff
 62
256
370
-1
  6
BYLAYER
 10
0.7323828720791442
 20
0.6213037059785012
 30
0.0
 11
0.7264181870854513
 21
0.6380376253225274
 31
0.0
  0
LINE
  5
EB
100
AcDbEntity
100
AcDbLine
  8
color#98d93aff
 62
256
370
-1
  6
BYLAYER
 10
0.7264181870854513
 20
0.6380376253225274
 30
0.0
 11
0.7213654887729023
 21
0.6552171789921314
 31
0.0
  0
LINE
  5
EC
100
AcDbEntity
100
AcDbLine
  8
color#98d93aff
 62
256
370
-1
  6
BYLAYER
 10
0.7213654887729023
 20
0.6552171789921314
 30
0.0
 11
0.8383213704032532
 21
0.6128821333081186
 31
0.0
  0
LINE
  5
ED
100
AcDbEntity
100
AcDbLine
  8
color#98d93aff
 62
256
370
-1
  6
BYLAYER
 10
0.8383213704032532
 20
0.6128821333081186
 30
0.0
 11
0.8475429131202171
 21
0.6117543132539131
 31
0.0
  0
LINE
  5
EE
100
AcDbEntity
100
AcDbLine
  8
color#6d6e71ff
 62
256
370
-1
  6
BYLAYER
 10
0.3484033738696862
 20
0.7476639306657681
 30
0.0
 11
0.6748876031317889
 21
0.7473404263244965
 31
0.0
  0
LINE
  5
EF
100
AcDbEntity
100
AcDbLine
  8
color#6d6e71ff
 62
256
370
-1
  6
BYLAYER
 10
0.6748876031317889
 20
0.7473404263244965
 30
0.0
 11
0.676658334929798
 21
0.7217416323453598
 31
0.0
  0
LINE
  5
F0
100
AcDbEntity
100
AcDbLine
  8
color#6d6e71ff
 62
256
370
-1
  6
BYLAYER
 10
0.676658334929798
 20
0.7217416323453598
 30
0.0
 11
0.6802588078937482
 21
0.6966036517003906
 31
0.0
  0
LINE
  5
F1
100
AcDbEntity
100
AcDbLine
  8
color#6d6e71ff
 62
256
370
-1
  6
BYLAYER
 10
0.6802588078937482
 20
0.6966036517003906
 30
0.0
 11
0.6856141413991103
 21
0.6719758673204743
 31
0.0
  0
LINE
  5
F2
100
AcDbEntity
100
AcDbLine
  8
color#6d6e71ff
 62
256
370
-1
  6
BYLAYER
 10
0.6856141413991103
 20
0.6719758673204743
 30
0.0
 11
0.6926494548213541
 21
0.6479076621364988
 31
0.0
  0
LINE
  5
F3
100
AcDbEntity
100
AcDbLine
  8
color#6d6e71ff
 62
256
370
-1
  6
BYLAYER
 10
0.6926494548213541
 20
0.6479076621364988
 30
0.0
 11
0.7012898675359507
 21
0.6244484190793485
 31
0.0
  0
LINE
  5
F4
100
AcDbEntity
100
AcDbLine
  8
color#6d6e71ff
 62
256
370
-1
  6
BYLAYER
 10
0.7012898675359507
 20
0.6244484190793485
 30
0.0
 11
0.7114604989183698
 21
0.6016475210799102
 31
0.0
  0
LINE
  5
F5
100
AcDbEntity
100
AcDbLine
  8
color#6d6e71ff
 62
256
370
-1
  6
BYLAYER
 10
0.7114604989183698
 20
0.6016475210799102
 30
0.0
 11
0.7230864683440815
 21
0.5795543510690708
 31
0.0
  0
LINE
  5
F6
100
AcDbEntity
100
AcDbLine
  8
color#6d6e71ff
 62
256
370
-1
  6
BYLAYER
 10
0.7230864683440815
 20
0.5795543510690708
 30
0.0
 11
0.736092895188557
 21
0.5582182919777148
 31
0.0
  0
LINE
  5
F7
100
AcDbEntity
100
AcDbLine
  8
color#6d6e71ff
 62
256
370
-1
  6
BYLAYER
 10
0.736092895188557
 20
0.5582182919777148
 30
0.0
 11
0.7504048988272661
 21
0.53768872673673
 31
0.0
  0
LINE
  5
F8
100
AcDbEntity
100
AcDbLine
  8
color#6d6e71ff
 62
256
370
-1
  6
BYLAYER
 10
0.7504048988272661
 20
0.53768872673673
 30
0.0
 11
0.7659475986356789
 21
0.5180150382770022
 31
0.0
  0
LINE
  5
F9
100
AcDbEntity
100
AcDbLine
  8
color#6d6e71ff
 62
256
370
-1
  6
BYLAYER
 10
0.7659475986356789
 20
0.5180150382770022
 30
0.0
 11
0.7826461139892662
 21
0.4992466095294174
 31
0.0
  0
LINE
  5
FA
100
AcDbEntity
100
AcDbLine
  8
color#6d6e71ff
 62
256
370
-1
  6
BYLAYER
 10
0.7826461139892662
 20
0.4992466095294174
 30
0.0
 11
0.800425564263498
 21
0.4814328234248612
 31
0.0
  0
LINE
  5
FB
100
AcDbEntity
100
AcDbLine
  8
color#6d6e71ff
 62
256
370
-1
  6
BYLAYER
 10
0.800425564263498
 20
0.4814328234248612
 30
0.0
 11
0.8192110688338448
 21
0.4646230628942211
 31
0.0
  0
LINE
  5
FC
100
AcDbEntity
100
AcDbLine
  8
color#6d6e71ff
 62
256
370
-1
  6
BYLAYER
 10
0.8192110688338448
 20
0.4646230628942211
 30
0.0
 11
0.8389277470757766
 21
0.4488667108683821
 31
0.0
  0
LINE
  5
FD
100
AcDbEntity
100
AcDbLine
  8
color#6d6e71ff
 62
256
370
-1
  6
BYLAYER
 10
0.8389277470757766
 20
0.4488667108683821
 30
0.0
 11
0.8595007183647643
 21
0.4342131502782309
 31
0.0
  0
LINE
  5
FE
100
AcDbEntity
100
AcDbLine
  8
color#6d6e71ff
 62
256
370
-1
  6
BYLAYER
 10
0.8595007183647643
 20
0.4342131502782309
 30
0.0
 11
0.8808551020762778
 21
0.4207117640546536
 31
0.0
  0
LINE
  5
FF
100
AcDbEntity
100
AcDbLine
  8
color#6d6e71ff
 62
256
370
-1
  6
BYLAYER
 10
0.8808551020762778
 20
0.4207117640546536
 30
0.0
 11
0.9029160175857872
 21
0.4084119351285366
 31
0.0
  0
LINE
  5
100
100
AcDbEntity
100
AcDbLine
  8
color#6d6e71ff
 62
256
370
-1
  6
BYLAYER
 10
0.9029160175857872
 20
0.4084119351285366
 30
0.0
 11
0.9256085842687636
 21
0.3973630464307658
 31
0.0
  0
LINE
  5
101
100
AcDbEntity
100
AcDbLine
  8
color#6d6e71ff
 62
256
370
-1
  6
BYLAYER
 10
0.9256085842687636
 20
0.3973630464307658
 30
0.0
 11
0.9488579215006766
 21
0.3876144808922272
 31
0.0
  0
LINE
  5
102
100
AcDbEntity
100
AcDbLine
  8
color#6d6e71ff
 62
256
370
-1
  6
BYLAYER
 10
0.9488579215006766
 20
0.3876144808922272
 30
0.0
 11
0.9725891486569969
 21
0.3792156214438076
 31
0.0
  0
LINE
  5
103
100
AcDbEntity
100
AcDbLine
  8
color#6d6e71ff
 62
256
370
-1
  6
BYLAYER
 10
0.9725891486569969
 20
0.3792156214438076
 30
0.0
 11
0.9967273851131946
 21
0.3722158510163926
 31
0.0
  0
LINE
  5
104
100
AcDbEntity
100
AcDbLine
  8
color#6d6e71ff
 62
256
370
-1
  6
BYLAYER
 10
0.9967273851131946
 20
0.3722158510163926
 30
0.0
 11
1.0211977502447402
 21
0.3666645525408687
 31
0.0
  0
LINE
  5
105
100
AcDbEntity
100
AcDbLine
  8
color#6d6e71ff
 62
256
370
-1
  6
BYLAYER
 10
1.0211977502447402
 20
0.3666645525408687
 30
0.0
 11
1.045925363427104
 21
0.362611108948122
 31
0.0
  0
LINE
  5
106
100
AcDbEntity
100
AcDbLine
  8
color#6d6e71ff
 62
256
370
-1
  6
BYLAYER
 10
1.045925363427104
 20
0.362611108948122
 30
0.0
 11
1.0708353440357561
 21
0.3601049031690388
 31
0.0
  0
LINE
  5
107
100
AcDbEntity
100
AcDbLine
  8
color#6d6e71ff
 62
256
370
-1
  6
BYLAYER
 10
1.0708353440357561
 20
0.3601049031690388
 30
0.0
 11
1.0958528114461668
 21
0.359195318134505
 31
0.0
  0
LINE
  5
108
100
AcDbEntity
100
AcDbLine
  8
color#6d6e71ff
 62
256
370
-1
  6
BYLAYER
 10
1.0958528114461668
 20
0.359195318134505
 30
0.0
 11
1.1209028850338072
 21
0.3599317367754069
 31
0.0
  0
LINE
  5
109
100
AcDbEntity
100
AcDbLine
  8
color#6d6e71ff
 62
256
370
-1
  6
BYLAYER
 10
1.1209028850338072
 20
0.3599317367754069
 30
0.0
 11
1.1459106841741467
 21
0.3623635420226311
 31
0.0
  0
LINE
  5
10A
100
AcDbEntity
100
AcDbLine
  8
color#6d6e71ff
 62
256
370
-1
  6
BYLAYER
 10
1.1459106841741467
 20
0.3623635420226311
 30
0.0
 11
1.1708013282426557
 21
0.3665401168070629
 31
0.0
  0
LINE
  5
10B
100
AcDbEntity
100
AcDbLine
  8
color#6d6e71ff
 62
256
370
-1
  6
BYLAYER
 10
1.1708013282426557
 20
0.3665401168070629
 30
0.0
 11
1.1954999366148054
 21
0.3725108440595893
 31
0.0
  0
LINE
  5
10C
100
AcDbEntity
100
AcDbLine
  8
color#6d6e71ff
 62
256
370
-1
  6
BYLAYER
 10
1.1954999366148054
 20
0.3725108440595893
 30
0.0
 11
1.2131454148700025
 21
0.3770781437456444
 31
0.0
  0
LINE
  5
10D
100
AcDbEntity
100
AcDbLine
  8
color#6d6e71ff
 62
256
370
-1
  6
BYLAYER
 10
1.2131454148700025
 20
0.3770781437456444
 30
0.0
 11
1.2305842204121742
 21
0.3824389969323406
 31
0.0
  0
LINE
  5
10E
100
AcDbEntity
100
AcDbLine
  8
color#6d6e71ff
 62
256
370
-1
  6
BYLAYER
 10
1.2305842204121742
 20
0.3824389969323406
 30
0.0
 11
1.2477879623030583
 21
0.3885715677054265
 31
0.0
  0
LINE
  5
10F
100
AcDbEntity
100
AcDbLine
  8
color#6d6e71ff
 62
256
370
-1
  6
BYLAYER
 10
1.2477879623030583
 20
0.3885715677054265
 30
0.0
 11
1.264728249604393
 21
0.3954540201506518
 31
0.0
  0
LINE
  5
110
100
AcDbEntity
100
AcDbLine
  8
color#6d6e71ff
 62
256
370
-1
  6
BYLAYER
 10
1.264728249604393
 20
0.3954540201506518
 30
0.0
 11
1.2813766913779165
 21
0.4030645183537652
 31
0.0
  0
LINE
  5
111
100
AcDbEntity
100
AcDbLine
  8
color#6d6e71ff
 62
256
370
-1
  6
BYLAYER
 10
1.2813766913779165
 20
0.4030645183537652
 30
0.0
 11
1.2977048966853661
 21
0.4113812264005163
 31
0.0
  0
LINE
  5
112
100
AcDbEntity
100
AcDbLine
  8
color#6d6e71ff
 62
256
370
-1
  6
BYLAYER
 10
1.2977048966853661
 20
0.4113812264005163
 30
0.0
 11
1.3136844745884797
 21
0.420382308376655
 31
0.0
  0
LINE
  5
113
100
AcDbEntity
100
AcDbLine
  8
color#6d6e71ff
 62
256
370
-1
  6
BYLAYER
 10
1.3136844745884797
 20
0.420382308376655
 30
0.0
 11
1.329287034148996
 21
0.4300459283679289
 31
0.0
  0
LINE
  5
114
100
AcDbEntity
100
AcDbLine
  8
color#6d6e71ff
 62
256
370
-1
  6
BYLAYER
 10
1.329287034148996
 20
0.4300459283679289
 30
0.0
 11
1.3444841844286524
 21
0.4403502504600881
 31
0.0
  0
LINE
  5
115
100
AcDbEntity
100
AcDbLine
  8
color#6d6e71ff
 62
256
370
-1
  6
BYLAYER
 10
1.3444841844286524
 20
0.4403502504600881
 30
0.0
 11
1.3592475344891863
 21
0.4512734387388829
 31
0.0
  0
LINE
  5
116
100
AcDbEntity
100
AcDbLine
  8
color#6d6e71ff
 62
256
370
-1
  6
BYLAYER
 10
1.3592475344891863
 20
0.4512734387388829
 30
0.0
 11
1.3735486933923369
 21
0.4627936572900614
 31
0.0
  0
LINE
  5
117
100
AcDbEntity
100
AcDbLine
  8
color#6d6e71ff
 62
256
370
-1
  6
BYLAYER
 10
1.3735486933923369
 20
0.4627936572900614
 30
0.0
 11
1.3873592701998412
 21
0.4748890701993723
 31
0.0
  0
LINE
  5
118
100
AcDbEntity
100
AcDbLine
  8
color#6d6e71ff
 62
256
370
-1
  6
BYLAYER
 10
1.3873592701998412
 20
0.4748890701993723
 30
0.0
 11
1.4006508739734371
 21
0.4875378415525663
 31
0.0
  0
LINE
  5
119
100
AcDbEntity
100
AcDbLine
  8
color#6d6e71ff
 62
256
370
-1
  6
BYLAYER
 10
1.4006508739734371
 20
0.4875378415525663
 30
0.0
 11
1.413395113774863
 21
0.5007181354353918
 31
0.0
  0
LINE
  5
11A
100
AcDbEntity
100
AcDbLine
  8
color#6d6e71ff
 62
256
370
-1
  6
BYLAYER
 10
1.413395113774863
 20
0.5007181354353918
 30
0.0
 11
1.4255635986658566
 21
0.5144081159335978
 31
0.0
  0
LINE
  5
11B
100
AcDbEntity
100
AcDbLine
  8
color#6d6e71ff
 62
256
370
-1
  6
BYLAYER
 10
1.4255635986658566
 20
0.5144081159335978
 30
0.0
 11
1.4371279377081556
 21
0.5285859471329344
 31
0.0
  0
LINE
  5
11C
100
AcDbEntity
100
AcDbLine
  8
color#6d6e71ff
 62
256
370
-1
  6
BYLAYER
 10
1.4371279377081556
 20
0.5285859471329344
 30
0.0
 11
1.4480597399634982
 21
0.5432297931191502
 31
0.0
  0
LINE
  5
11D
100
AcDbEntity
100
AcDbLine
  8
color#6d6e71ff
 62
256
370
-1
  6
BYLAYER
 10
1.4480597399634982
 20
0.5432297931191502
 30
0.0
 11
1.4583306144936226
 21
0.5583178179779944
 31
0.0
  0
LINE
  5
11E
100
AcDbEntity
100
AcDbLine
  8
color#6d6e71ff
 62
256
370
-1
  6
BYLAYER
 10
1.4583306144936226
 20
0.5583178179779944
 30
0.0
 11
1.4679121703602662
 21
0.5738281857952163
 31
0.0
  0
LINE
  5
11F
100
AcDbEntity
100
AcDbLine
  8
color#6d6e71ff
 62
256
370
-1
  6
BYLAYER
 10
1.4679121703602662
 20
0.5738281857952163
 30
0.0
 11
1.4767760166251673
 21
0.5897390606565655
 31
0.0
  0
LINE
  5
120
100
AcDbEntity
100
AcDbLine
  8
color#6d6e71ff
 62
256
370
-1
  6
BYLAYER
 10
1.4767760166251673
 20
0.5897390606565655
 30
0.0
 11
1.4848937623500633
 21
0.606028606647791
 31
0.0
  0
LINE
  5
121
100
AcDbEntity
100
AcDbLine
  8
color#6d6e71ff
 62
256
370
-1
  6
BYLAYER
 10
1.4848937623500633
 20
0.606028606647791
 30
0.0
 11
1.4922370165966927
 21
0.6226749878546419
 31
0.0
  0
LINE
  5
122
100
AcDbEntity
100
AcDbLine
  8
color#6d6e71ff
 62
256
370
-1
  6
BYLAYER
 10
1.4922370165966927
 20
0.6226749878546419
 30
0.0
 11
1.4987773884267932
 21
0.6396563683628678
 31
0.0
  0
LINE
  5
123
100
AcDbEntity
100
AcDbLine
  8
color#6d6e71ff
 62
256
370
-1
  6
BYLAYER
 10
1.4987773884267932
 20
0.6396563683628678
 30
0.0
 11
1.5044864869021031
 21
0.6569509122582176
 31
0.0
  0
LINE
  5
124
100
AcDbEntity
100
AcDbLine
  8
color#6d6e71ff
 62
256
370
-1
  6
BYLAYER
 10
1.5044864869021031
 20
0.6569509122582176
 30
0.0
 11
1.5093359210843593
 21
0.6745367836264408
 31
0.0
  0
LINE
  5
125
100
AcDbEntity
100
AcDbLine
  8
color#6d6e71ff
 62
256
370
-1
  6
BYLAYER
 10
1.5093359210843593
 20
0.6745367836264408
 30
0.0
 11
1.5132973000353009
 21
0.6923921465532862
 31
0.0
  0
LINE
  5
126
100
AcDbEntity
100
AcDbLine
  8
color#6d6e71ff
 62
256
370
-1
  6
BYLAYER
 10
1.5132973000353009
 20
0.6923921465532862
 30
0.0
 11
1.5163422328166651
 21
0.7104951651245035
 31
0.0
  0
LINE
  5
127
100
AcDbEntity
100
AcDbLine
  8
color#6d6e71ff
 62
256
370
-1
  6
BYLAYER
 10
1.5163422328166651
 20
0.7104951651245035
 30
0.0
 11
1.5184423284901902
 21
0.728824003425842
 31
0.0
  0
LINE
  5
128
100
AcDbEntity
100
AcDbLine
  8
color#6d6e71ff
 62
256
370
-1
  6
BYLAYER
 10
1.5184423284901902
 20
0.728824003425842
 30
0.0
 11
1.5195691961176139
 21
0.7473568255430507
 31
0.0
  0
LINE
  5
129
100
AcDbEntity
100
AcDbLine
  8
color#6d6e71ff
 62
256
370
-1
  6
BYLAYER
 10
1.5195691961176139
 20
0.7473568255430507
 30
0.0
 11
1.8460091130203444
 21
0.7477063173611194
 31
0.0
  0
LINE
  5
12A
100
AcDbEntity
100
AcDbLine
  8
color#6d6e71ff
 62
256
370
-1
  6
BYLAYER
 10
1.8460091130203444
 20
0.7477063173611194
 30
0.0
 11
1.8461121351469423
 21
0.6553825296133092
 31
0.0
  0
LINE
  5
12B
100
AcDbEntity
100
AcDbLine
  8
color#6d6e71ff
 62
256
370
-1
  6
BYLAYER
 10
1.8461121351469423
 20
0.6553825296133092
 30
0.0
 11
1.6980859313174375
 21
0.6517594354271361
 31
0.0
  0
LINE
  5
12C
100
AcDbEntity
100
AcDbLine
  8
color#6d6e71ff
 62
256
370
-1
  6
BYLAYER
 10
1.6980859313174375
 20
0.6517594354271361
 30
0.0
 11
1.6650685081598211
 21
0.5328838168135173
 31
0.0
  0
LINE
  5
12D
100
AcDbEntity
100
AcDbLine
  8
color#6d6e71ff
 62
256
370
-1
  6
BYLAYER
 10
1.6650685081598211
 20
0.5328838168135173
 30
0.0
 11
1.7792999197673438
 21
0.4831598860414668
 31
0.0
  0
LINE
  5
12E
100
AcDbEntity
100
AcDbLine
  8
color#6d6e71ff
 62
256
370
-1
  6
BYLAYER
 10
1.7792999197673438
 20
0.4831598860414668
 30
0.0
 11
1.7156197196860348
 21
0.3686474727366134
 31
0.0
  0
LINE
  5
12F
100
AcDbEntity
100
AcDbLine
  8
color#6d6e71ff
 62
256
370
-1
  6
BYLAYER
 10
1.7156197196860348
 20
0.3686474727366134
 30
0.0
 11
1.6789936893064903
 21
0.3222947215465215
 31
0.0
  0
LINE
  5
130
100
AcDbEntity
100
AcDbLine
  8
color#6d6e71ff
 62
256
370
-1
  6
BYLAYER
 10
1.6789936893064903
 20
0.3222947215465215
 30
0.0
 11
1.5827398706482416
 21
0.391856295147973
 31
0.0
  0
LINE
  5
131
100
AcDbEntity
100
AcDbLine
  8
color#6d6e71ff
 62
256
370
-1
  6
BYLAYER
 10
1.5827398706482416
 20
0.391856295147973
 30
0.0
 11
1.4760122358081793
 21
0.2981429561169363
 31
0.0
  0
LINE
  5
132
100
AcDbEntity
100
AcDbLine
  8
color#6d6e71ff
 62
256
370
-1
  6
BYLAYER
 10
1.4760122358081793
 20
0.2981429561169363
 30
0.0
 11
1.5535516281400041
 21
0.1965207732047644
 31
0.0
  0
LINE
  5
133
100
AcDbEntity
100
AcDbLine
  8
color#6d6e71ff
 62
256
370
-1
  6
BYLAYER
 10
1.5535516281400041
 20
0.1965207732047644
 30
0.0
 11
1.3988966064390806
 21
0.097172834385356
 31
0.0
  0
LINE
  5
134
100
AcDbEntity
100
AcDbLine
  8
color#6d6e71ff
 62
256
370
-1
  6
BYLAYER
 10
1.3988966064390806
 20
0.097172834385356
 30
0.0
 11
1.329898646404341
 21
0.2101110757656329
 31
0.0
  0
LINE
  5
135
100
AcDbEntity
100
AcDbLine
  8
color#6d6e71ff
 62
256
370
-1
  6
BYLAYER
 10
1.329898646404341
 20
0.2101110757656329
 30
0.0
 11
1.1957896280088676
 21
0.1780977067561417
 31
0.0
  0
LINE
  5
136
100
AcDbEntity
100
AcDbLine
  8
color#6d6e71ff
 62
256
370
-1
  6
BYLAYER
 10
1.1957896280088676
 20
0.1780977067561417
 30
0.0
 11
1.1912098636075628
 21
0.0580614631366387
 31
0.0
  0
LINE
  5
137
100
AcDbEntity
100
AcDbLine
  8
color#6d6e71ff
 62
256
370
-1
  6
BYLAYER
 10
1.1912098636075628
 20
0.0580614631366387
 30
0.0
 11
1.0032390490564889
 21
0.0579963309669892
 31
0.0
  0
LINE
  5
138
100
AcDbEntity
100
AcDbLine
  8
color#6d6e71ff
 62
256
370
-1
  6
BYLAYER
 10
1.0032390490564889
 20
0.0579963309669892
 30
0.0
 11
0.9986566617799174
 21
0.1780235977710625
 31
0.0
  0
LINE
  5
139
100
AcDbEntity
100
AcDbLine
  8
color#6d6e71ff
 62
256
370
-1
  6
BYLAYER
 10
0.9986566617799174
 20
0.1780235977710625
 30
0.0
 11
0.864572207345391
 21
0.2101903797047997
 31
0.0
  0
LINE
  5
13A
100
AcDbEntity
100
AcDbLine
  8
color#6d6e71ff
 62
256
370
-1
  6
BYLAYER
 10
0.864572207345391
 20
0.2101903797047997
 30
0.0
 11
0.7955786557252297
 21
0.0971669778205854
 31
0.0
  0
LINE
  5
13B
100
AcDbEntity
100
AcDbLine
  8
color#6d6e71ff
 62
256
370
-1
  6
BYLAYER
 10
0.7955786557252297
 20
0.0971669778205854
 30
0.0
 11
0.6407966873159851
 21
0.1965235875371021
 31
0.0
  0
LINE
  5
13C
100
AcDbEntity
100
AcDbLine
  8
color#6d6e71ff
 62
256
370
-1
  6
BYLAYER
 10
0.6407966873159851
 20
0.1965235875371021
 30
0.0
 11
0.7184445290750935
 21
0.2981932104978888
 31
0.0
  0
LINE
  5
13D
100
AcDbEntity
100
AcDbLine
  8
color#6d6e71ff
 62
256
370
-1
  6
BYLAYER
 10
0.7184445290750935
 20
0.2981932104978888
 30
0.0
 11
0.6116927688799918
 21
0.3918361054400646
 31
0.0
  0
LINE
  5
13E
100
AcDbEntity
100
AcDbLine
  8
color#6d6e71ff
 62
256
370
-1
  6
BYLAYER
 10
0.6116927688799918
 20
0.3918361054400646
 30
0.0
 11
0.5152951025910371
 21
0.3225725712293528
 31
0.0
  0
LINE
  5
13F
100
AcDbEntity
100
AcDbLine
  8
color#6d6e71ff
 62
256
370
-1
  6
BYLAYER
 10
0.5152951025910371
 20
0.3225725712293528
 30
0.0
 11
0.4470222810691255
 21
0.4184652656248953
 31
0.0
  0
LINE
  5
140
100
AcDbEntity
100
AcDbLine
  8
color#6d6e71ff
 62
256
370
-1
  6
BYLAYER
 10
0.4470222810691255
 20
0.4184652656248953
 30
0.0
 11
0.4153664175253092
 21
0.4831687780060411
 31
0.0
  0
LINE
  5
141
100
AcDbEntity
100
AcDbLine
  8
color#6d6e71ff
 62
256
370
-1
  6
BYLAYER
 10
0.4153664175253092
 20
0.4831687780060411
 30
0.0
 11
0.5293931149026108
 21
0.5328318424601753
 31
0.0
  0
LINE
  5
142
100
AcDbEntity
100
AcDbLine
  8
color#6d6e71ff
 62
256
370
-1
  6
BYLAYER
 10
0.5293931149026108
 20
0.5328318424601753
 30
0.0
 11
0.4963153348704147
 21
0.6517937298225136
 31
0.0
  0
LINE
  5
143
100
AcDbEntity
100
AcDbLine
  8
color#6d6e71ff
 62
256
370
-1
  6
BYLAYER
 10
0.4963153348704147
 20
0.6517937298225136
 30
0.0
 11
0.3483282031018085
 21
0.6554365775263391
 31
0.0
  0
LINE
  5
144
100
AcDbEntity
100
AcDbLine
  8
color#6d6e71ff
 62
256
370
-1
  6
BYLAYER
 10
0.3483282031018085
 20
0.6554365775263391
 30
0.0
 11
0.3484033738696862
 21
0.7476639306657681
 31
0.0
  0
ENDSEC
  0
SECTION
  2
OBJECTS
  0
DICTIONARY
  5
C
100
AcDbDictionary
280
0
281
1
  3
ACAD_GROUP
350
D
  3
ACAD_LAYOUT
350
1A
  3
ACAD_MLINESTYLE
350
17
  3
ACAD_PLOTSETTINGS
350
19
  3
ACAD_PLOTSTYLENAME
350
E
  3
AcDbVariableDictionary
350
145
  0
DICTIONARY
  5
D
100
AcDbDictionary
280
0
281
1
  0
ACDBDICTIONARYWDFLT
  5
E
100
AcDbDictionary
281
1
  3
Normal
350
F
100
AcDbDictionaryWithDefault
340
F
  0
ACDBPLACEHOLDER
  5
F
  0
DICTIONARY
  5
17
100
AcDbDictionary
280
0
281
1
  3
Standard
350
18
  0
MLINESTYLE
  5
18
100
AcDbMlineStyle
  2
STANDARD
 70
0
  3

 62
256
 51
90.0
 52
90.0
 71
2
 49
0.5
 62
256
  6
BYLAYER
 49
-0.5
 62
256
  6
BYLAYER
  0
DICTIONARY
  5
19
100
AcDbDictionary
280
0
281
1
  0
DICTIONARY
  5
1A
100
AcDbDictionary
281
1
  3
Layout1
350
1E
  3
Layout2
350
26
  3
Model
350
22
  0
LAYOUT
  5
1E
100
AcDbPlotSettings
  1

  2
C:\Program Files\AutoCAD 2002\plotters\DWF ePlot (optimized for plotting).pc3
  4

  6

 40
0.0
 41
0.0
 42
0.0
 43
0.0
 44
0.0
 45
0.0
 46
0.0
 47
0.0
 48
0.0
 49
0.0
140
0.0
141
0.0
142
1.0
143
1.0
 70
688
 72
0
 73
0
 74
5
  7

 75
16
147
1.0
148
0.0
149
0.0
100
AcDbLayout
  1
Layout1
 70
1
 71
1
 10
0.0
 20
0.0
 11
420.0
 21
297.0
 12
0.0
 22
0.0
 32
0.0
 14
100000000000000000000.0
 24
100000000000000000000.0
 34
100000000000000000000.0
 15
-100000000000000000000.0
 25
-100000000000000000000.0
 35
-100000000000000000000.0
146
0.0
 13
0.0
 23
0.0
 33
0.0
 16
1.0
 26
0.0
 36
0.0
 17
0.0
 27
1.0
 37
0.0
 76
0
330
1B
  0
LAYOUT
  5
22
100
AcDbPlotSettings
  1

  2
C:\Program Files\AutoCAD 2002\plotters\DWF ePlot (optimized for plotting).pc3
  4

  6

 40
0.0
 41
0.0
 42
0.0
 43
0.0
 44
0.0
 45
0.0
 46
0.0
 47
0.0
 48
0.0
 49
0.0
140
0.0
141
0.0
142
1.0
143
1.0
 70
1712
 72
0
 73
0
 74
0
  7

 75
0
147
1.0
148
0.0
149
0.0
100
AcDbLayout
  1
Model
 70
1
 71
0
 10
0.0
 20
0.0
 11
12.0
 21
9.0
 12
0.0
 22
0.0
 32
0.0
 14
0.0
 24
0.0
 34
0.0
 15
0.0
 25
0.0
 35
0.0
146
0.0
 13
0.0
 23
0.0
 33
0.0
 16
1.0
 26
0.0
 36
0.0
 17
0.0
 27
1.0
 37
0.0
 76
0
330
1F
  0
LAYOUT
  5
26
100
AcDbPlotSettings
  1

  2
C:\Program Files\AutoCAD 2002\plotters\DWF ePlot (optimized for plotting).pc3
  4

  6

 40
0.0
 41
0.0
 42
0.0
 43
0.0
 44
0.0
 45
0.0
 46
0.0
 47
0.0
 48
0.0
 49
0.0
140
0.0
141
0.0
142
1.0
143
1.0
 70
688
 72
0
 73
0
 74
5
  7

 75
16
147
1.0
148
0.0
149
0.0
100
AcDbLayout
  1
Layout2
 70
1
 71
2
 10
0.0
 20
0.0
 11
12.0
 21
9.0
 12
0.0
 22
0.0
 32
0.0
 14
0.0
 24
0.0
 34
0.0
 15
0.0
 25
0.0
 35
0.0
146
0.0
 13
0.0
 23
0.0
 33
0.0
 16
1.0
 26
0.0
 36
0.0
 17
0.0
 27
1.0
 37
0.0
 76
0
330
23
  0
DICTIONARY
  5
145
100
AcDbDictionary
281
1
  3
DIMASSOC
350
147
  3
HIDETEXT
350
146
  0
DICTIONARYVAR
  5
146
100
DictionaryVariables
280
0
  1
2
  0
DICTIONARYVAR
  5
147
100
DictionaryVariables
280
0
  1
1
  0
ENDSEC
  0
EOF
